<mxfile host="app.diagrams.net" modified="2024-02-17T18:01:41.105Z" agent="Mozilla/5.0 (Macintosh; Intel Mac OS X 10_15_7) AppleWebKit/605.1.15 (KHTML, like Gecko) Version/16.6 Safari/605.1.15" version="23.1.5" etag="6FIK9UVR4XkO3jPlTYN7" type="github">
  <diagram name="Страница — 1" id="d94SVh53pTTkWjvOSrKW">
    <mxGraphModel>
      <root>
        <mxCell id="0" />
        <mxCell id="1" parent="0" />
      </root>
    </mxGraphModel>
  </diagram>
</mxfile>
